<?xml version="1.0" encoding="windows-1252"?>
<!-- Generator: Adobe Illustrator 19.0.0, SVG Export Plug-In . SVG Version: 6.00 Build 0)  -->
<svg version="1.1" id="Capa_1" xmlns="https://www.w3.org/2000/svg" xmlns:xlink="https://www.w3.org/1999/xlink" x="0px" y="0px" viewBox="0 0 440.96 440.96" style="enable-background:new 0 0 440.96 440.96;" xml:space="preserve">
<g>
	<g>
		<path d="M350.32,367.92c2.065-3.953,3.162-8.34,3.2-12.8c0-15.773-12.787-28.56-28.56-28.56h-9.92l-36.8-153.92    c15.661-0.859,27.661-14.251,26.802-29.912c-0.69-12.578-9.582-23.198-21.842-26.088l32-43.68c0.247-0.381,0.461-0.783,0.64-1.2    V71.2c0.354-0.812,0.57-1.677,0.64-2.56V8c0-4.418-3.582-8-8-8H278c-4.418,0-8,3.582-8,8v16h-21.12V8c0-4.418-3.582-8-8-8h-36.4    c-4.418,0-8,3.582-8,8v16h-20.96V8c0-4.418-3.582-8-8-8H136.8c-4.418,0-8,3.582-8,8v60.16c0.027,0.932,0.216,1.853,0.56,2.72v0.56    c0.179,0.417,0.393,0.819,0.64,1.2l32,43.68c-15.267,3.598-24.726,18.891-21.128,34.158c2.89,12.26,13.51,21.153,26.088,21.842    l-36.8,154.08h-9.6c-15.773,0-28.56,12.787-28.56,28.56c0.026,4.366,1.067,8.666,3.04,12.56h-1.6c-8.837,0-16,7.163-16,16v41.44    c0,8.837,7.163,16,16,16h254.08c8.837,0,16-7.163,16-16v-41.2C363.562,375.971,357.989,369.283,350.32,367.92z M144.8,15.92h14.72    v16c0,4.418,3.582,8,8,8h36.96c4.418,0,8-3.582,8-8v-16h20.24v16c0,4.418,3.582,8,8,8h37.04c4.418,0,8-3.582,8-8v-16h14.72v44.16    H144.8V15.92z M152.8,76.08h140.16l-28.88,39.44h-82.64L152.8,76.08z M156.482,144.323c-0.001-0.054-0.002-0.108-0.002-0.163    l0.48-0.08c0-6.937,5.623-12.56,12.56-12.56h106.96c6.937-0.005,12.564,5.615,12.569,12.551    c0.005,6.937-5.615,12.564-12.551,12.569c-0.006,0-0.012,0-0.018,0h-107.2C162.344,156.773,156.615,151.258,156.482,144.323z     M183.68,172.64h78.16l36.72,153.92h-152L183.68,172.64z M118.557,342.56c0.667-0.053,1.336-0.053,2.003,0h204.4    c6.915-0.553,12.968,4.604,13.522,11.518c0.553,6.915-4.604,12.968-11.518,13.522c-0.667,0.053-1.336,0.053-2.003,0h-204.4    c-6.915,0.553-12.968-4.604-13.522-11.518C106.485,349.167,111.642,343.113,118.557,342.56z M347.6,425.2H93.36v-41.52H347.6    V425.2z"/>
	</g>
</g>
<g>
</g>
<g>
</g>
<g>
</g>
<g>
</g>
<g>
</g>
<g>
</g>
<g>
</g>
<g>
</g>
<g>
</g>
<g>
</g>
<g>
</g>
<g>
</g>
<g>
</g>
<g>
</g>
<g>
</g>
</svg>