<?xml version="1.0" encoding="iso-8859-1"?>
<!-- Generator: Adobe Illustrator 19.0.0, SVG Export Plug-In . SVG Version: 6.00 Build 0)  -->
<svg version="1.1" id="Capa_1" xmlns="http://www.w3.org/2000/svg" xmlns:xlink="http://www.w3.org/1999/xlink" x="0px" y="0px"
	 viewBox="0 0 59.982 59.982" style="enable-background:new 0 0 59.982 59.982;" xml:space="preserve">
<g>
	<path d="M51.991,7.982c-14.596,0-21.14-7.533-21.233-7.642c-0.38-0.455-1.155-0.454-1.535,0.001
		c-0.064,0.076-6.537,7.64-21.232,7.64c-0.552,0-1,0.448-1,1v19.085c0,10.433,4.69,20.348,12.546,26.521
		c3.167,2.489,6.588,4.29,10.169,5.352c0.093,0.028,0.189,0.042,0.285,0.042s0.191-0.014,0.285-0.042
		c3.581-1.063,7.002-2.863,10.169-5.352c7.856-6.174,12.546-16.088,12.546-26.521V8.982C52.991,8.43,52.543,7.982,51.991,7.982z
		 M50.991,28.067c0,9.824-4.404,19.151-11.782,24.949c-2.883,2.266-5.983,3.92-9.218,4.921c-3.235-1-6.335-2.655-9.218-4.921
		C13.395,47.219,8.991,37.891,8.991,28.067V9.971c12.242-0.272,18.865-5.497,21-7.545c2.135,2.049,8.758,7.273,21,7.545V28.067z"/>
	<path d="M29.429,7.986c-3.015,2.049-8.163,4.689-15.564,5.633c-0.5,0.064-0.874,0.489-0.874,0.992v13.457
		c0,8.607,3.833,16.758,10.254,21.804c2.022,1.589,4.169,2.835,6.381,3.703c0.118,0.046,0.241,0.069,0.365,0.069
		s0.248-0.023,0.365-0.069c2.21-0.867,4.358-2.113,6.382-3.703c6.42-5.046,10.253-13.197,10.253-21.804V14.611
		c0-0.503-0.374-0.928-0.874-0.992c-7.401-0.944-12.549-3.584-15.564-5.633C30.214,7.755,29.768,7.755,29.429,7.986z M44.991,15.482
		v12.585c0,7.999-3.547,15.562-9.489,20.231c-1.758,1.381-3.61,2.479-5.511,3.266c-1.901-0.788-3.753-1.885-5.51-3.266
		c-5.942-4.67-9.49-12.233-9.49-20.232V15.482c6.899-1.021,11.875-3.446,15-5.47C33.116,12.036,38.092,14.461,44.991,15.482z"/>
</g>
<g>
</g>
<g>
</g>
<g>
</g>
<g>
</g>
<g>
</g>
<g>
</g>
<g>
</g>
<g>
</g>
<g>
</g>
<g>
</g>
<g>
</g>
<g>
</g>
<g>
</g>
<g>
</g>
<g>
</g>
</svg>
